<svg xmlns="http://www.w3.org/2000/svg" width="112.5" viewBox="0 0 112.5 56.25" height="56.25" version="1.0"><defs><clipPath id="a"><path d="M 9 15.746094 L 34.976562 15.746094 L 34.976562 41.765625 L 9 41.765625 Z M 9 15.746094"/></clipPath></defs><path fill="#3AAFA9" d="M 22.050781 12.5625 C 12.402344 12.5625 4.582031 20.386719 4.582031 30.035156 C 4.582031 39.683594 12.402344 47.503906 22.050781 47.503906 C 31.703125 47.503906 39.523438 39.683594 39.523438 30.035156 C 39.523438 20.386719 31.703125 12.5625 22.050781 12.5625"/><g clip-path="url(#a)"><path fill="#FFF" d="M 34.746094 31.429688 L 22.953125 21.714844 C 23.75 21.011719 24.507812 20.265625 25.222656 19.476562 C 25.640625 18.929688 25.761719 18.320312 25.589844 17.652344 C 25.398438 16.898438 24.949219 16.363281 24.242188 16.046875 C 23.867188 15.890625 23.480469 15.84375 23.082031 15.90625 C 22.683594 15.96875 22.328125 16.132812 22.023438 16.398438 C 21.71875 16.136719 21.367188 15.96875 20.964844 15.90625 C 20.566406 15.84375 20.179688 15.890625 19.808594 16.046875 C 19.097656 16.363281 18.648438 16.898438 18.457031 17.652344 C 18.285156 18.320312 18.40625 18.929688 18.828125 19.476562 C 19.542969 20.265625 20.296875 21.011719 21.097656 21.714844 L 9.300781 31.429688 C 9.171875 31.539062 9.097656 31.675781 9.082031 31.84375 C 9.0625 32.007812 9.109375 32.160156 9.214844 32.289062 C 9.320312 32.417969 9.460938 32.492188 9.625 32.507812 C 9.792969 32.523438 9.941406 32.480469 10.074219 32.375 L 12.316406 30.523438 L 12.316406 41.152344 C 12.3125 41.320312 12.371094 41.464844 12.492188 41.585938 C 12.609375 41.707031 12.753906 41.765625 12.921875 41.765625 L 18.820312 41.765625 C 18.988281 41.765625 19.128906 41.707031 19.25 41.585938 C 19.367188 41.46875 19.425781 41.324219 19.425781 41.160156 L 19.425781 36.015625 C 19.425781 35.667969 19.492188 35.339844 19.625 35.019531 C 19.757812 34.703125 19.945312 34.421875 20.1875 34.175781 C 20.429688 33.933594 20.710938 33.746094 21.03125 33.613281 C 21.347656 33.480469 21.679688 33.417969 22.023438 33.417969 C 22.367188 33.417969 22.699219 33.480469 23.019531 33.613281 C 23.335938 33.746094 23.617188 33.933594 23.859375 34.175781 C 24.105469 34.421875 24.292969 34.703125 24.421875 35.019531 C 24.554688 35.339844 24.621094 35.667969 24.621094 36.015625 L 24.621094 41.152344 C 24.621094 41.320312 24.679688 41.464844 24.800781 41.582031 C 24.917969 41.699219 25.058594 41.757812 25.226562 41.757812 L 31.125 41.757812 C 31.292969 41.757812 31.4375 41.699219 31.554688 41.582031 C 31.671875 41.464844 31.730469 41.320312 31.734375 41.152344 L 31.734375 30.519531 L 33.976562 32.367188 C 34.105469 32.476562 34.253906 32.519531 34.421875 32.503906 C 34.589844 32.488281 34.726562 32.414062 34.832031 32.285156 C 34.9375 32.152344 34.984375 32.003906 34.96875 31.835938 C 34.949219 31.671875 34.878906 31.535156 34.746094 31.425781 Z M 19.785156 18.734375 C 19.605469 18.496094 19.554688 18.230469 19.632812 17.941406 C 19.730469 17.566406 19.957031 17.304688 20.3125 17.148438 C 20.929688 16.867188 21.4375 17.566406 21.554688 17.621094 C 21.613281 17.691406 21.683594 17.742188 21.761719 17.78125 C 21.84375 17.820312 21.929688 17.839844 22.023438 17.839844 C 22.113281 17.839844 22.199219 17.820312 22.28125 17.78125 C 22.363281 17.742188 22.429688 17.691406 22.488281 17.621094 C 22.496094 17.613281 23.128906 16.875 23.734375 17.148438 C 24.085938 17.304688 24.3125 17.566406 24.410156 17.941406 C 24.488281 18.230469 24.4375 18.496094 24.261719 18.734375 C 23.550781 19.5 22.804688 20.230469 22.023438 20.917969 C 21.242188 20.230469 20.496094 19.5 19.785156 18.734375 Z M 30.515625 40.546875 L 25.835938 40.546875 L 25.835938 36.015625 C 25.835938 35.507812 25.738281 35.023438 25.542969 34.554688 C 25.351562 34.089844 25.074219 33.675781 24.71875 33.320312 C 24.359375 32.964844 23.949219 32.6875 23.480469 32.496094 C 23.015625 32.300781 22.527344 32.203125 22.023438 32.203125 C 21.519531 32.203125 21.03125 32.300781 20.566406 32.496094 C 20.097656 32.6875 19.6875 32.964844 19.328125 33.320312 C 18.972656 33.675781 18.695312 34.089844 18.503906 34.554688 C 18.308594 35.023438 18.214844 35.507812 18.210938 36.015625 L 18.210938 40.546875 L 13.527344 40.546875 L 13.527344 29.519531 L 22.023438 22.523438 L 30.519531 29.519531 Z M 30.515625 40.546875"/></g><g fill="#FFF"><g><g><path d="M 5.617188 -7.949219 L 5.617188 -4.863281 L 2.753906 -4.863281 L 2.753906 -7.949219 L 0.730469 -7.949219 L 0.730469 0 L 2.753906 0 L 2.753906 -3.101562 L 5.617188 -3.101562 L 5.617188 0 L 7.644531 0 L 7.644531 -7.949219 Z M 5.617188 -7.949219" transform="translate(45.27 27.262)"/></g></g></g><g fill="#FFF"><g><g><path d="M 4.53125 0.105469 C 6.78125 0.105469 8.609375 -1.722656 8.609375 -3.972656 C 8.609375 -6.226562 6.78125 -8.054688 4.53125 -8.054688 C 2.265625 -8.054688 0.449219 -6.226562 0.449219 -3.972656 C 0.449219 -1.722656 2.265625 0.105469 4.53125 0.105469 Z M 4.53125 -1.882812 C 3.324219 -1.882812 2.425781 -2.769531 2.425781 -3.972656 C 2.425781 -5.179688 3.324219 -6.066406 4.53125 -6.066406 C 5.722656 -6.066406 6.625 -5.179688 6.625 -3.972656 C 6.625 -2.769531 5.722656 -1.882812 4.53125 -1.882812 Z M 4.53125 -1.882812" transform="translate(55.774 27.262)"/></g></g></g><g fill="#FFF"><g><g><path d="M 4.09375 0.105469 C 6 0.105469 7.496094 -1.046875 7.496094 -2.53125 L 7.496094 -7.949219 L 5.472656 -7.949219 L 5.472656 -2.914062 C 5.472656 -2.210938 4.863281 -1.65625 4.09375 -1.65625 C 3.324219 -1.65625 2.714844 -2.210938 2.714844 -2.914062 L 2.714844 -7.949219 L 0.6875 -7.949219 L 0.6875 -2.53125 C 0.6875 -1.046875 2.1875 0.105469 4.09375 0.105469 Z M 4.09375 0.105469" transform="translate(66.941 27.262)"/></g></g></g><g fill="#FFF"><g><g><path d="M 3.324219 0.105469 C 4.847656 0.105469 6.160156 -0.78125 6.160156 -2.304688 C 6.160156 -5.324219 2.558594 -4.570312 2.558594 -5.777344 C 2.558594 -6.121094 2.820312 -6.277344 3.140625 -6.277344 C 3.535156 -6.277344 3.972656 -6.039062 4.398438 -5.589844 L 5.722656 -6.875 C 5.101562 -7.605469 4.160156 -8.054688 3.167969 -8.054688 C 1.90625 -8.054688 0.515625 -7.324219 0.515625 -5.628906 C 0.515625 -2.875 4.132812 -3.535156 4.132812 -2.332031 C 4.132812 -2.011719 3.867188 -1.789062 3.351562 -1.789062 C 2.664062 -1.789062 2.105469 -2.160156 1.828125 -2.753906 L 0.171875 -1.722656 C 0.703125 -0.714844 1.867188 0.105469 3.324219 0.105469 Z M 3.324219 0.105469" transform="translate(77.247 27.262)"/></g></g></g><g fill="#FFF"><g><g><path d="M 5.722656 -6.1875 L 5.722656 -7.949219 L 0.792969 -7.949219 L 0.792969 0 L 5.722656 0 L 5.722656 -1.761719 L 2.820312 -1.761719 L 2.820312 -3.101562 L 5.273438 -3.101562 L 5.273438 -4.847656 L 2.820312 -4.847656 L 2.820312 -6.1875 Z M 5.722656 -6.1875" transform="translate(85.818 27.262)"/></g></g></g><g fill="#FFF"><g><g><path d="M 5.152344 -3.152344 C 6.066406 -3.472656 6.703125 -4.359375 6.703125 -5.445312 C 6.703125 -6.824219 5.683594 -7.949219 4.265625 -7.949219 L 0.730469 -7.949219 L 0.730469 0 L 2.753906 0 L 2.753906 -2.914062 L 3.21875 -2.914062 L 5.074219 0 L 7.351562 0 Z M 3.933594 -4.542969 L 2.753906 -4.542969 L 2.753906 -6.1875 L 3.933594 -6.1875 C 4.410156 -6.1875 4.753906 -5.84375 4.753906 -5.363281 C 4.753906 -4.886719 4.410156 -4.542969 3.933594 -4.542969 Z M 3.933594 -4.542969" transform="translate(45.27 42.05)"/></g></g></g><g fill="#FFF"><g><g><path d="M 5.722656 -6.1875 L 5.722656 -7.949219 L 0.792969 -7.949219 L 0.792969 0 L 5.722656 0 L 5.722656 -1.761719 L 2.820312 -1.761719 L 2.820312 -3.101562 L 5.273438 -3.101562 L 5.273438 -4.847656 L 2.820312 -4.847656 L 2.820312 -6.1875 Z M 5.722656 -6.1875" transform="translate(54.622 42.05)"/></g></g></g><g fill="#FFF"><g><g><path d="M 5.722656 -6.1875 L 5.722656 -7.949219 L 0.792969 -7.949219 L 0.792969 0 L 2.820312 0 L 2.820312 -3.101562 L 5.273438 -3.101562 L 5.273438 -4.847656 L 2.820312 -4.847656 L 2.820312 -6.1875 Z M 5.722656 -6.1875" transform="translate(62.914 42.05)"/></g></g></g><g fill="#FFF"><g><g><path d="M 4.09375 0.105469 C 6 0.105469 7.496094 -1.046875 7.496094 -2.53125 L 7.496094 -7.949219 L 5.472656 -7.949219 L 5.472656 -2.914062 C 5.472656 -2.210938 4.863281 -1.65625 4.09375 -1.65625 C 3.324219 -1.65625 2.714844 -2.210938 2.714844 -2.914062 L 2.714844 -7.949219 L 0.6875 -7.949219 L 0.6875 -2.53125 C 0.6875 -1.046875 2.1875 0.105469 4.09375 0.105469 Z M 4.09375 0.105469" transform="translate(70.85 42.05)"/></g></g></g><g fill="#FFF"><g><g><path d="M 4.515625 -4.410156 L 4.515625 -2.863281 L 6.332031 -2.863281 C 5.960938 -2.265625 5.3125 -1.882812 4.53125 -1.882812 C 3.324219 -1.882812 2.425781 -2.769531 2.425781 -3.972656 C 2.425781 -5.179688 3.324219 -6.066406 4.53125 -6.066406 C 5.378906 -6.066406 6.066406 -5.628906 6.410156 -4.941406 L 8.160156 -5.828125 C 7.484375 -7.152344 6.105469 -8.054688 4.53125 -8.054688 C 2.265625 -8.054688 0.449219 -6.226562 0.449219 -3.972656 C 0.449219 -1.722656 2.265625 0.105469 4.53125 0.105469 C 6.78125 0.105469 8.609375 -1.722656 8.609375 -3.972656 L 8.609375 -4.410156 Z M 4.515625 -4.410156" transform="translate(81.155 42.05)"/></g></g></g><g fill="#FFF"><g><g><path d="M 5.722656 -6.1875 L 5.722656 -7.949219 L 0.792969 -7.949219 L 0.792969 0 L 5.722656 0 L 5.722656 -1.761719 L 2.820312 -1.761719 L 2.820312 -3.101562 L 5.273438 -3.101562 L 5.273438 -4.847656 L 2.820312 -4.847656 L 2.820312 -6.1875 Z M 5.722656 -6.1875" transform="translate(92.323 42.05)"/></g></g></g><g fill="#FFF"><g><g><path d="M 5.96875 -3.28125 C 6.0625 -3.28125 6.132812 -3.234375 6.1875 -3.140625 C 6.238281 -3.046875 6.265625 -2.929688 6.265625 -2.796875 C 6.265625 -2.453125 6.160156 -2.25 5.953125 -2.1875 C 5.523438 -2.03125 5.050781 -1.941406 4.53125 -1.921875 C 4.394531 -1.328125 4.128906 -0.847656 3.734375 -0.484375 C 3.335938 -0.128906 2.882812 0.046875 2.375 0.046875 C 1.945312 0.046875 1.582031 -0.0507812 1.28125 -0.25 C 0.976562 -0.457031 0.75 -0.734375 0.59375 -1.078125 C 0.4375 -1.421875 0.359375 -1.789062 0.359375 -2.1875 C 0.359375 -2.726562 0.457031 -3.210938 0.65625 -3.640625 C 0.863281 -4.066406 1.148438 -4.398438 1.515625 -4.640625 C 1.878906 -4.878906 2.285156 -5 2.734375 -5 C 3.273438 -5 3.707031 -4.8125 4.03125 -4.4375 C 4.363281 -4.0625 4.5625 -3.597656 4.625 -3.046875 C 4.957031 -3.066406 5.359375 -3.140625 5.828125 -3.265625 C 5.878906 -3.273438 5.925781 -3.28125 5.96875 -3.28125 Z M 2.46875 -1.078125 C 2.6875 -1.078125 2.878906 -1.171875 3.046875 -1.359375 C 3.222656 -1.546875 3.335938 -1.8125 3.390625 -2.15625 C 3.171875 -2.3125 3 -2.507812 2.875 -2.75 C 2.757812 -2.988281 2.703125 -3.242188 2.703125 -3.515625 C 2.703125 -3.628906 2.710938 -3.742188 2.734375 -3.859375 L 2.6875 -3.859375 C 2.40625 -3.859375 2.164062 -3.722656 1.96875 -3.453125 C 1.78125 -3.179688 1.6875 -2.796875 1.6875 -2.296875 C 1.6875 -1.898438 1.765625 -1.597656 1.921875 -1.390625 C 2.078125 -1.179688 2.257812 -1.078125 2.46875 -1.078125 Z M 2.46875 -1.078125" transform="translate(95.885 26.55)"/></g></g></g><g fill="#FFF"><g><g><path d="M 4.78125 -3 C 4.976562 -3 5.078125 -2.847656 5.078125 -2.546875 C 5.078125 -1.984375 4.632812 -1.703125 3.75 -1.703125 C 3.582031 -1.703125 3.335938 -1.734375 3.015625 -1.796875 C 3.109375 -1.359375 3.1875 -0.867188 3.25 -0.328125 C 3.3125 0.210938 3.34375 0.65625 3.34375 1 C 3.34375 1.769531 3.21875 2.359375 2.96875 2.765625 C 2.71875 3.171875 2.390625 3.375 1.984375 3.375 C 1.460938 3.375 1.09375 3.007812 0.875 2.28125 C 0.664062 1.5625 0.5625 0.46875 0.5625 -1 C 0.5625 -2.375 0.707031 -3.765625 1 -5.171875 C 1.289062 -6.578125 1.695312 -7.742188 2.21875 -8.671875 C 2.738281 -9.597656 3.304688 -10.0625 3.921875 -10.0625 C 4.265625 -10.0625 4.53125 -9.910156 4.71875 -9.609375 C 4.90625 -9.304688 5 -8.90625 5 -8.40625 C 5 -6.726562 3.992188 -4.898438 1.984375 -2.921875 C 1.921875 -2.222656 1.890625 -1.609375 1.890625 -1.078125 C 1.890625 -0.347656 1.910156 0.398438 1.953125 1.171875 C 2.003906 1.953125 2.085938 2.34375 2.203125 2.34375 C 2.421875 2.34375 2.53125 1.972656 2.53125 1.234375 C 2.53125 0.671875 2.488281 0.128906 2.40625 -0.390625 C 2.332031 -0.910156 2.234375 -1.457031 2.109375 -2.03125 C 2.097656 -2.125 2.125 -2.238281 2.1875 -2.375 C 2.257812 -2.519531 2.34375 -2.644531 2.4375 -2.75 C 2.539062 -2.863281 2.632812 -2.921875 2.71875 -2.921875 C 2.863281 -2.921875 3.035156 -2.914062 3.234375 -2.90625 C 3.296875 -2.894531 3.367188 -2.890625 3.453125 -2.890625 C 3.742188 -2.890625 4.0625 -2.914062 4.40625 -2.96875 C 4.46875 -2.96875 4.53125 -2.972656 4.59375 -2.984375 C 4.65625 -2.992188 4.71875 -3 4.78125 -3 Z M 3.703125 -9 C 3.578125 -9 3.414062 -8.78125 3.21875 -8.34375 C 3.03125 -7.914062 2.84375 -7.34375 2.65625 -6.625 C 2.476562 -5.90625 2.320312 -5.144531 2.1875 -4.34375 C 2.757812 -4.988281 3.195312 -5.660156 3.5 -6.359375 C 3.800781 -7.066406 3.957031 -7.726562 3.96875 -8.34375 C 3.96875 -8.78125 3.878906 -9 3.703125 -9 Z M 3.703125 -9" transform="translate(100.711 26.55)"/></g></g></g></svg>