<svg xmlns="http://www.w3.org/2000/svg" width="375" viewBox="0 0 375 375" height="375" version="1.0"><defs><clipPath id="a"><path d="M 111 67.175781 L 254.695312 67.175781 L 254.695312 211.175781 L 111 211.175781 Z M 111 67.175781"/></clipPath></defs><path fill="#FFF" d="M 182.707031 49.445312 C 129.480469 49.445312 86.332031 92.59375 86.332031 145.820312 C 86.332031 199.046875 129.480469 242.195312 182.707031 242.195312 C 235.933594 242.195312 279.082031 199.046875 279.082031 145.820312 C 279.082031 92.59375 235.933594 49.445312 182.707031 49.445312"/><g clip-path="url(#a)"><path fill="#FFF" d="M 253.4375 153.988281 L 188.15625 100.210938 C 192.574219 96.320312 196.761719 92.195312 200.71875 87.832031 C 201.261719 87.121094 201.714844 86.359375 202.085938 85.546875 C 202.453125 84.730469 202.726562 83.886719 202.902344 83.011719 C 203.082031 82.136719 203.15625 81.25 203.132812 80.359375 C 203.109375 79.464844 202.988281 78.585938 202.765625 77.71875 C 202.519531 76.746094 202.164062 75.8125 201.707031 74.917969 C 201.246094 74.023438 200.695312 73.191406 200.046875 72.425781 C 199.402344 71.65625 198.675781 70.96875 197.871094 70.367188 C 197.070312 69.761719 196.210938 69.253906 195.292969 68.84375 C 194.28125 68.417969 193.230469 68.136719 192.140625 68.003906 C 191.050781 67.871094 189.960938 67.890625 188.878906 68.066406 C 187.792969 68.238281 186.753906 68.554688 185.757812 69.019531 C 184.761719 69.484375 183.851562 70.078125 183.023438 70.800781 C 182.195312 70.082031 181.28125 69.488281 180.285156 69.023438 C 179.292969 68.5625 178.25 68.242188 177.167969 68.070312 C 176.082031 67.898438 174.996094 67.878906 173.90625 68.007812 C 172.816406 68.140625 171.765625 68.417969 170.753906 68.84375 C 169.835938 69.253906 168.976562 69.761719 168.171875 70.367188 C 167.371094 70.96875 166.644531 71.65625 165.996094 72.425781 C 165.351562 73.191406 164.796875 74.023438 164.339844 74.917969 C 163.878906 75.8125 163.527344 76.746094 163.28125 77.71875 C 163.058594 78.585938 162.933594 79.464844 162.910156 80.359375 C 162.886719 81.25 162.964844 82.136719 163.140625 83.011719 C 163.320312 83.886719 163.59375 84.730469 163.960938 85.546875 C 164.328125 86.359375 164.785156 87.121094 165.324219 87.832031 C 169.28125 92.195312 173.46875 96.320312 177.886719 100.210938 L 112.605469 153.988281 C 112.261719 154.269531 111.984375 154.609375 111.773438 155.003906 C 111.5625 155.398438 111.433594 155.816406 111.390625 156.261719 C 111.347656 156.707031 111.390625 157.144531 111.519531 157.570312 C 111.648438 158 111.855469 158.386719 112.136719 158.730469 C 112.421875 159.074219 112.761719 159.355469 113.152344 159.566406 C 113.546875 159.777344 113.96875 159.902344 114.410156 159.949219 C 114.855469 159.992188 115.292969 159.949219 115.71875 159.820312 C 116.148438 159.691406 116.535156 159.484375 116.878906 159.199219 L 129.292969 148.96875 L 129.292969 207.789062 C 129.289062 208.238281 129.371094 208.667969 129.542969 209.082031 C 129.710938 209.5 129.953125 209.863281 130.269531 210.183594 C 130.585938 210.5 130.949219 210.746094 131.363281 210.917969 C 131.777344 211.089844 132.207031 211.175781 132.65625 211.175781 L 165.292969 211.175781 C 165.738281 211.175781 166.164062 211.089844 166.578125 210.921875 C 166.988281 210.75 167.351562 210.507812 167.664062 210.191406 C 167.980469 209.878906 168.222656 209.515625 168.390625 209.105469 C 168.5625 208.695312 168.648438 208.265625 168.648438 207.820312 L 168.648438 179.347656 C 168.648438 178.402344 168.742188 177.46875 168.925781 176.542969 C 169.109375 175.617188 169.382812 174.71875 169.742188 173.847656 C 170.105469 172.976562 170.546875 172.144531 171.070312 171.363281 C 171.59375 170.578125 172.191406 169.851562 172.859375 169.183594 C 173.527344 168.515625 174.253906 167.921875 175.035156 167.394531 C 175.820312 166.871094 176.648438 166.429688 177.523438 166.066406 C 178.394531 165.707031 179.292969 165.433594 180.21875 165.25 C 181.144531 165.066406 182.078125 164.972656 183.023438 164.972656 C 183.964844 164.972656 184.902344 165.066406 185.828125 165.25 C 186.753906 165.433594 187.652344 165.707031 188.523438 166.066406 C 189.394531 166.429688 190.222656 166.871094 191.007812 167.394531 C 191.792969 167.921875 192.519531 168.515625 193.1875 169.183594 C 193.855469 169.851562 194.449219 170.578125 194.972656 171.363281 C 195.5 172.144531 195.941406 172.976562 196.300781 173.847656 C 196.664062 174.71875 196.9375 175.617188 197.121094 176.542969 C 197.304688 177.46875 197.398438 178.402344 197.398438 179.347656 L 197.398438 207.789062 C 197.398438 208.234375 197.484375 208.660156 197.652344 209.070312 C 197.824219 209.484375 198.066406 209.84375 198.382812 210.160156 C 198.695312 210.472656 199.058594 210.71875 199.46875 210.886719 C 199.878906 211.058594 200.308594 211.144531 200.753906 211.144531 L 233.390625 211.144531 C 233.835938 211.144531 234.265625 211.058594 234.675781 210.890625 C 235.085938 210.71875 235.449219 210.476562 235.765625 210.164062 C 236.082031 209.847656 236.324219 209.484375 236.496094 209.074219 C 236.664062 208.664062 236.75 208.234375 236.753906 207.789062 L 236.753906 148.945312 L 249.164062 159.175781 C 249.511719 159.457031 249.898438 159.664062 250.324219 159.792969 C 250.753906 159.921875 251.1875 159.964844 251.632812 159.921875 C 252.078125 159.875 252.496094 159.75 252.890625 159.539062 C 253.285156 159.328125 253.621094 159.046875 253.90625 158.703125 C 254.1875 158.359375 254.394531 157.972656 254.527344 157.542969 C 254.65625 157.117188 254.699219 156.679688 254.652344 156.234375 C 254.609375 155.792969 254.484375 155.371094 254.273438 154.976562 C 254.0625 154.585938 253.785156 154.246094 253.4375 153.960938 Z M 170.644531 83.726562 C 170.171875 83.097656 169.863281 82.394531 169.710938 81.621094 C 169.5625 80.847656 169.589844 80.082031 169.796875 79.324219 C 170.054688 78.34375 170.511719 77.472656 171.171875 76.707031 C 171.828125 75.9375 172.621094 75.351562 173.546875 74.949219 C 176.957031 73.386719 179.769531 77.246094 180.421875 77.558594 C 180.582031 77.746094 180.757812 77.917969 180.953125 78.066406 C 181.148438 78.21875 181.359375 78.34375 181.582031 78.449219 C 181.804688 78.554688 182.039062 78.632812 182.277344 78.6875 C 182.519531 78.742188 182.761719 78.769531 183.007812 78.769531 C 183.257812 78.769531 183.5 78.742188 183.742188 78.6875 C 183.980469 78.632812 184.214844 78.554688 184.4375 78.449219 C 184.660156 78.34375 184.871094 78.21875 185.066406 78.066406 C 185.261719 77.917969 185.4375 77.746094 185.597656 77.558594 C 185.636719 77.519531 189.132812 73.417969 192.484375 74.949219 C 193.410156 75.351562 194.203125 75.9375 194.863281 76.707031 C 195.519531 77.472656 195.980469 78.34375 196.238281 79.324219 C 196.441406 80.082031 196.46875 80.847656 196.320312 81.621094 C 196.171875 82.394531 195.863281 83.097656 195.394531 83.726562 C 191.476562 87.964844 187.351562 91.992188 183.023438 95.808594 C 178.6875 91.992188 174.5625 87.964844 170.644531 83.726562 Z M 230.027344 204.425781 L 204.113281 204.425781 L 204.113281 179.347656 C 204.113281 178.65625 204.078125 177.96875 204.011719 177.28125 C 203.945312 176.59375 203.84375 175.910156 203.707031 175.234375 C 203.574219 174.558594 203.40625 173.886719 203.203125 173.226562 C 203.003906 172.566406 202.769531 171.917969 202.507812 171.277344 C 202.242188 170.640625 201.945312 170.019531 201.621094 169.410156 C 201.296875 168.800781 200.941406 168.207031 200.554688 167.632812 C 200.171875 167.058594 199.761719 166.507812 199.324219 165.972656 C 198.886719 165.4375 198.421875 164.929688 197.933594 164.441406 C 197.445312 163.953125 196.933594 163.488281 196.398438 163.050781 C 195.867188 162.613281 195.3125 162.203125 194.738281 161.820312 C 194.164062 161.433594 193.570312 161.082031 192.960938 160.753906 C 192.351562 160.429688 191.730469 160.132812 191.09375 159.871094 C 190.453125 159.605469 189.804688 159.375 189.144531 159.171875 C 188.484375 158.972656 187.8125 158.804688 187.136719 158.671875 C 186.460938 158.535156 185.777344 158.433594 185.089844 158.367188 C 184.402344 158.300781 183.714844 158.265625 183.023438 158.265625 C 182.332031 158.265625 181.644531 158.300781 180.957031 158.367188 C 180.269531 158.433594 179.585938 158.535156 178.910156 158.671875 C 178.230469 158.804688 177.5625 158.972656 176.902344 159.171875 C 176.242188 159.375 175.589844 159.605469 174.953125 159.871094 C 174.316406 160.132812 173.691406 160.429688 173.082031 160.753906 C 172.472656 161.082031 171.882812 161.433594 171.308594 161.820312 C 170.734375 162.203125 170.179688 162.613281 169.644531 163.050781 C 169.113281 163.488281 168.601562 163.953125 168.113281 164.441406 C 167.625 164.929688 167.160156 165.4375 166.722656 165.972656 C 166.285156 166.507812 165.871094 167.058594 165.488281 167.632812 C 165.105469 168.207031 164.75 168.800781 164.425781 169.410156 C 164.097656 170.019531 163.804688 170.640625 163.539062 171.277344 C 163.273438 171.917969 163.042969 172.566406 162.839844 173.226562 C 162.640625 173.886719 162.472656 174.558594 162.339844 175.234375 C 162.203125 175.910156 162.101562 176.59375 162.035156 177.28125 C 161.964844 177.96875 161.929688 178.65625 161.929688 179.347656 L 161.929688 204.425781 L 136.011719 204.425781 L 136.011719 143.414062 L 183.023438 104.683594 L 230.035156 143.414062 Z M 230.027344 204.425781"/></g><g fill="#FFF"><g><g><path d="M 12.34375 -22.488281 C 10.527344 -22.488281 8.816406 -21.878906 7.441406 -20.886719 L 7.441406 -40.5625 L 4.023438 -40.5625 L 4.023438 0 L 7.441406 0 L 7.441406 -14.109375 C 7.441406 -16.921875 9.644531 -19.070312 12.34375 -19.070312 C 15.046875 -19.070312 17.304688 -16.921875 17.304688 -14.109375 L 17.304688 0 L 20.667969 0 L 20.667969 -14.109375 C 20.667969 -18.792969 16.976562 -22.488281 12.34375 -22.488281 Z M 12.34375 -22.488281" transform="translate(17.147 295.808)"/></g></g></g><g fill="#FFF"><g><g><path d="M 13.945312 0.441406 C 20.28125 0.441406 25.40625 -4.683594 25.40625 -11.023438 C 25.40625 -17.359375 20.28125 -22.488281 13.945312 -22.488281 C 7.605469 -22.488281 2.480469 -17.359375 2.480469 -11.023438 C 2.480469 -4.683594 7.605469 0.441406 13.945312 0.441406 Z M 13.945312 -2.976562 C 9.480469 -2.976562 5.898438 -6.558594 5.898438 -11.023438 C 5.898438 -15.488281 9.480469 -19.070312 13.945312 -19.070312 C 18.351562 -19.070312 21.992188 -15.488281 21.992188 -11.023438 C 21.992188 -6.558594 18.351562 -2.976562 13.945312 -2.976562 Z M 13.945312 -2.976562" transform="translate(41.555 295.808)"/></g></g></g><g fill="#FFF"><g><g><path d="M 11.574219 0.441406 C 16.480469 0.441406 19.839844 -2.8125 19.839844 -7.9375 L 19.839844 -22.046875 L 16.480469 -22.046875 L 16.480469 -8.320312 C 16.480469 -5.015625 14.441406 -2.976562 11.574219 -2.976562 C 8.761719 -2.976562 6.667969 -5.015625 6.667969 -8.320312 L 6.667969 -22.046875 L 3.308594 -22.046875 L 3.308594 -7.9375 C 3.308594 -2.8125 6.613281 0.441406 11.574219 0.441406 Z M 11.574219 0.441406" transform="translate(69.433 295.808)"/></g></g></g><g fill="#FFF"><g><g><path d="M 9.480469 0.441406 C 13.335938 0.441406 16.535156 -2.148438 16.535156 -5.953125 C 16.535156 -9.921875 13.226562 -11.464844 10.363281 -12.621094 C 7.660156 -13.777344 6.28125 -14.382812 6.28125 -16.3125 C 6.28125 -18.1875 7.550781 -19.070312 9.371094 -19.070312 C 10.800781 -19.070312 12.070312 -18.464844 12.675781 -17.304688 L 15.652344 -18.847656 C 14.824219 -20.832031 12.015625 -22.488281 9.203125 -22.488281 C 5.953125 -22.488281 2.8125 -20.226562 2.8125 -16.203125 C 2.8125 -12.730469 5.125 -10.96875 9.039062 -9.480469 C 11.683594 -8.433594 13.117188 -7.714844 13.117188 -5.953125 C 13.117188 -4.023438 11.464844 -2.921875 9.480469 -2.921875 C 7.441406 -2.921875 5.457031 -4.078125 5.125 -5.675781 L 1.820312 -4.355469 C 2.644531 -1.707031 5.953125 0.441406 9.480469 0.441406 Z M 9.480469 0.441406" transform="translate(92.519 295.808)"/></g></g></g><g fill="#FFF"><g><g><path d="M 25.40625 -11.242188 C 25.242188 -17.582031 20.226562 -22.488281 13.945312 -22.488281 C 7.605469 -22.488281 2.480469 -17.359375 2.480469 -11.023438 C 2.480469 -4.683594 7.605469 0.441406 13.945312 0.441406 C 19.179688 0.441406 23.535156 -3.03125 24.964844 -7.769531 L 21.328125 -7.769531 C 20.117188 -4.90625 17.25 -2.976562 13.945312 -2.976562 C 9.589844 -2.976562 6.117188 -6.28125 5.898438 -10.527344 L 25.351562 -10.527344 Z M 13.945312 -19.070312 C 17.472656 -19.070312 20.445312 -16.808594 21.496094 -13.613281 L 6.339844 -13.613281 C 7.441406 -16.808594 10.417969 -19.070312 13.945312 -19.070312 Z M 13.945312 -19.070312" transform="translate(110.756 295.808)"/></g></g></g><g fill="#FFF"><g><g><path d="M 14.769531 -22.488281 C 11.628906 -22.488281 9.09375 -21.109375 7.441406 -18.902344 L 7.441406 -22.046875 L 4.023438 -22.046875 L 4.023438 0 L 7.441406 0 L 7.441406 -11.960938 C 7.441406 -15.984375 10.746094 -19.070312 14.769531 -19.070312 C 15.433594 -19.070312 15.984375 -19.015625 16.480469 -18.847656 L 16.480469 -22.320312 C 15.984375 -22.429688 15.433594 -22.488281 14.769531 -22.488281 Z M 14.769531 -22.488281" transform="translate(218.076 295.808)"/></g></g></g><g fill="#FFF"><g><g><path d="M 25.40625 -11.242188 C 25.242188 -17.582031 20.226562 -22.488281 13.945312 -22.488281 C 7.605469 -22.488281 2.480469 -17.359375 2.480469 -11.023438 C 2.480469 -4.683594 7.605469 0.441406 13.945312 0.441406 C 19.179688 0.441406 23.535156 -3.03125 24.964844 -7.769531 L 21.328125 -7.769531 C 20.117188 -4.90625 17.25 -2.976562 13.945312 -2.976562 C 9.589844 -2.976562 6.117188 -6.28125 5.898438 -10.527344 L 25.351562 -10.527344 Z M 13.945312 -19.070312 C 17.472656 -19.070312 20.445312 -16.808594 21.496094 -13.613281 L 6.339844 -13.613281 C 7.441406 -16.808594 10.417969 -19.070312 13.945312 -19.070312 Z M 13.945312 -19.070312" transform="translate(234.825 295.808)"/></g></g></g><g fill="#FFF"><g><g><path d="M 14.605469 -22.046875 L 8.707031 -22.046875 L 8.707031 -33.894531 C 8.707031 -35.933594 10.25 -37.257812 12.015625 -37.257812 L 14.550781 -37.203125 L 14.550781 -39.847656 C 13.945312 -40.234375 12.730469 -40.5625 11.628906 -40.5625 C 8.210938 -40.5625 5.289062 -37.808594 5.289062 -34.335938 L 5.289062 -22.046875 L 1.597656 -22.046875 L 1.597656 -18.738281 L 5.289062 -18.738281 L 5.289062 0 L 8.707031 0 L 8.707031 -18.738281 L 14.605469 -18.738281 Z M 14.605469 -22.046875" transform="translate(262.483 295.808)"/></g></g></g><g fill="#FFF"><g><g><path d="M 11.574219 0.441406 C 16.480469 0.441406 19.839844 -2.8125 19.839844 -7.9375 L 19.839844 -22.046875 L 16.480469 -22.046875 L 16.480469 -8.320312 C 16.480469 -5.015625 14.441406 -2.976562 11.574219 -2.976562 C 8.761719 -2.976562 6.667969 -5.015625 6.667969 -8.320312 L 6.667969 -22.046875 L 3.308594 -22.046875 L 3.308594 -7.9375 C 3.308594 -2.8125 6.613281 0.441406 11.574219 0.441406 Z M 11.574219 0.441406" transform="translate(277.69 295.808)"/></g></g></g><g fill="#FFF"><g><g><path d="M 21.933594 -22.046875 L 21.933594 -19.289062 C 19.894531 -21.273438 17.03125 -22.488281 13.945312 -22.488281 C 7.605469 -22.488281 2.480469 -17.414062 2.480469 -11.023438 C 2.480469 -4.683594 7.605469 0.441406 13.945312 0.441406 C 17.085938 0.441406 19.894531 -0.828125 21.992188 -2.867188 L 21.992188 1.929688 C 21.992188 6.339844 18.351562 9.976562 13.945312 9.976562 C 10.363281 9.976562 7.332031 7.605469 6.28125 4.410156 L 3.140625 5.785156 C 4.738281 10.25 8.984375 13.394531 13.945312 13.394531 C 20.28125 13.394531 25.40625 8.265625 25.40625 1.929688 L 25.40625 -22.046875 Z M 13.945312 -2.976562 C 9.480469 -2.976562 5.898438 -6.613281 5.898438 -11.023438 C 5.898438 -15.488281 9.480469 -19.070312 13.945312 -19.070312 C 18.351562 -19.070312 21.992188 -15.488281 21.992188 -11.023438 C 21.992188 -6.613281 18.351562 -2.976562 13.945312 -2.976562 Z M 13.945312 -2.976562" transform="translate(300.775 295.808)"/></g></g></g><g fill="#FFF"><g><g><path d="M 25.40625 -11.242188 C 25.242188 -17.582031 20.226562 -22.488281 13.945312 -22.488281 C 7.605469 -22.488281 2.480469 -17.359375 2.480469 -11.023438 C 2.480469 -4.683594 7.605469 0.441406 13.945312 0.441406 C 19.179688 0.441406 23.535156 -3.03125 24.964844 -7.769531 L 21.328125 -7.769531 C 20.117188 -4.90625 17.25 -2.976562 13.945312 -2.976562 C 9.589844 -2.976562 6.117188 -6.28125 5.898438 -10.527344 L 25.351562 -10.527344 Z M 13.945312 -19.070312 C 17.472656 -19.070312 20.445312 -16.808594 21.496094 -13.613281 L 6.339844 -13.613281 C 7.441406 -16.808594 10.417969 -19.070312 13.945312 -19.070312 Z M 13.945312 -19.070312" transform="translate(330.196 295.808)"/></g></g></g><g fill="#FFF"><g><g><path d="M 17.546875 -37.828125 C 17.785156 -37.828125 17.828125 -37.6875 17.671875 -37.40625 C 17.515625 -37.132812 17.15625 -37 16.59375 -37 L 9.953125 -36.640625 L 8.890625 -36.640625 C 8.890625 -36.554688 8.867188 -36.394531 8.828125 -36.15625 C 8.796875 -35.925781 8.78125 -35.734375 8.78125 -35.578125 C 8.457031 -34.304688 8.140625 -33.359375 7.828125 -32.734375 C 7.347656 -31.773438 6.753906 -30.941406 6.046875 -30.234375 C 4.390625 -28.972656 2.925781 -29.171875 1.65625 -30.828125 C 0.945312 -31.617188 0.59375 -32.84375 0.59375 -34.5 C 0.75 -36.164062 1.421875 -37.789062 2.609375 -39.375 C 3.472656 -40.238281 4.1875 -40.515625 4.75 -40.203125 C 4.90625 -40.117188 4.941406 -39.957031 4.859375 -39.71875 C 5.335938 -39.875 5.734375 -39.953125 6.046875 -39.953125 C 7.390625 -39.953125 8.257812 -39.242188 8.65625 -37.828125 L 9.953125 -37.828125 C 11.140625 -37.898438 13.273438 -37.9375 16.359375 -37.9375 C 16.441406 -37.9375 16.617188 -37.914062 16.890625 -37.875 C 17.171875 -37.84375 17.390625 -37.828125 17.546875 -37.828125 Z M 7.46875 -37.828125 C 7 -39.171875 6.328125 -39.601562 5.453125 -39.125 C 5.210938 -38.96875 5.09375 -38.769531 5.09375 -38.53125 C 5.09375 -38.0625 5.882812 -37.828125 7.46875 -37.828125 Z M 5.8125 -31.65625 C 6.914062 -32.6875 7.546875 -34.148438 7.703125 -36.046875 L 7.703125 -36.640625 C 5.410156 -36.796875 4.265625 -37.425781 4.265625 -38.53125 L 4.265625 -38.890625 C 2.921875 -37.078125 2.523438 -34.941406 3.078125 -32.484375 C 3.234375 -31.691406 3.585938 -31.21875 4.140625 -31.0625 C 4.703125 -30.90625 5.257812 -31.101562 5.8125 -31.65625 Z M 5.8125 -31.65625" transform="translate(160.744 320.163)"/></g></g></g><g fill="#FFF"><g><g><path d="M 27.859375 -37.46875 L 27.859375 -37.109375 C 27.304688 -36.796875 26.554688 -36.640625 25.609375 -36.640625 C 21.421875 -36.484375 14.304688 -34.785156 4.265625 -31.546875 C 3.554688 -31.222656 3.160156 -30.863281 3.078125 -30.46875 C 3.078125 -30 3.394531 -29.601562 4.03125 -29.28125 C 6.320312 -28.5 8.378906 -26.722656 10.203125 -23.953125 C 11.460938 -21.734375 11.894531 -19.203125 11.5 -16.359375 C 11.5 -16.128906 11.421875 -15.773438 11.265625 -15.296875 C 10.390625 -12.921875 8.804688 -12.207031 6.515625 -13.15625 C 5.566406 -13.550781 4.660156 -14.382812 3.796875 -15.65625 C 2.210938 -18.101562 1.1875 -20.710938 0.71875 -23.484375 L 0.125 -27.984375 C 0.125 -28.691406 -0.269531 -29.085938 -1.0625 -29.171875 L -2.734375 -29.171875 C -3.285156 -29.328125 -3.5625 -29.523438 -3.5625 -29.765625 C -3.5625 -30.160156 -3.285156 -30.4375 -2.734375 -30.59375 C -2.566406 -30.59375 -2.242188 -30.628906 -1.765625 -30.703125 C -1.296875 -30.785156 -0.921875 -30.882812 -0.640625 -31 C -0.367188 -31.125 -0.15625 -31.34375 0 -31.65625 C 0.15625 -31.894531 0.253906 -32.171875 0.296875 -32.484375 C 0.335938 -32.804688 0.359375 -33.164062 0.359375 -33.5625 C 0.359375 -33.957031 0.359375 -34.234375 0.359375 -34.390625 C 0.910156 -40.078125 1.816406 -44.898438 3.078125 -48.859375 C 4.109375 -51.941406 5.375 -54.664062 6.875 -57.03125 C 8.613281 -59.644531 11.101562 -61.78125 14.34375 -63.4375 C 15.132812 -63.832031 16.003906 -64.109375 16.953125 -64.265625 C 18.140625 -64.421875 19.1875 -64.179688 20.09375 -63.546875 C 21.007812 -62.921875 21.582031 -62.054688 21.8125 -60.953125 C 21.894531 -60.710938 21.972656 -60.351562 22.046875 -59.875 C 22.128906 -59.40625 22.171875 -59.128906 22.171875 -59.046875 C 22.015625 -56.285156 21.109375 -53.398438 19.453125 -50.390625 C 18.023438 -47.785156 15.648438 -45.0625 12.328125 -42.21875 C 9.328125 -39.84375 6.800781 -38.0625 4.75 -36.875 C 3.875 -36.320312 3.394531 -35.570312 3.3125 -34.625 C 3.15625 -33.59375 3.175781 -32.976562 3.375 -32.78125 C 3.570312 -32.582031 4.226562 -32.644531 5.34375 -32.96875 C 5.726562 -33.039062 6.925781 -33.410156 8.9375 -34.078125 C 10.957031 -34.753906 12.679688 -35.3125 14.109375 -35.75 C 15.535156 -36.1875 17.453125 -36.617188 19.859375 -37.046875 C 22.273438 -37.484375 24.585938 -37.742188 26.796875 -37.828125 C 27.273438 -37.828125 27.628906 -37.785156 27.859375 -37.703125 Z M 5.453125 -46.59375 C 4.503906 -42.957031 3.988281 -40.191406 3.90625 -38.296875 L 3.90625 -37.828125 L 4.5 -38.296875 C 9.71875 -41.617188 13.75 -45.097656 16.59375 -48.734375 C 18.332031 -50.867188 19.5625 -53.320312 20.28125 -56.09375 C 20.75 -57.507812 20.863281 -58.929688 20.625 -60.359375 C 20.238281 -62.171875 19.132812 -63 17.3125 -62.84375 C 16.28125 -62.84375 15.332031 -62.523438 14.46875 -61.890625 C 12.019531 -60.472656 10.238281 -58.65625 9.125 -56.4375 C 7.78125 -53.832031 6.554688 -50.550781 5.453125 -46.59375 Z M 3.203125 -28.109375 C 2.960938 -26.921875 3.082031 -25.296875 3.5625 -23.234375 C 4.03125 -20.628906 4.898438 -18.300781 6.171875 -16.25 C 6.640625 -15.375 7.269531 -14.78125 8.0625 -14.46875 C 8.851562 -14.226562 9.484375 -14.460938 9.953125 -15.171875 C 10.273438 -15.890625 10.515625 -16.722656 10.671875 -17.671875 C 10.910156 -19.804688 10.296875 -21.921875 8.828125 -24.015625 C 7.367188 -26.109375 5.726562 -27.472656 3.90625 -28.109375 Z M 3.203125 -28.109375" transform="translate(176.158 320.163)"/></g></g></g></svg>